<svg width="78" height="127" viewBox="0 0 78 127" fill="none" xmlns="http://www.w3.org/2000/svg">
<path d="M29.9482 12C28.8482 12 27.9482 11.1 27.9482 10V5C27.9482 3.9 28.8482 3 29.9482 3H37.9482C39.0482 3 39.9482 3.9 39.9482 5V10C39.9482 11.1 39.0482 12 37.9482 12H35.9482V15L32.9482 12H29.9482ZM47.9482 18C49.0482 18 49.9482 17.1 49.9482 16V11C49.9482 9.9 49.0482 9 47.9482 9H41.9482V10C41.9482 12.2 40.1482 14 37.9482 14V16C37.9482 17.1 38.8482 18 39.9482 18H41.9482V21L44.9482 18H47.9482Z" fill="#FAFAFA"/>
<g clip-path="url(#clip0_11_50110)">
<path d="M38.9482 62C49.4417 62 57.9482 53.4934 57.9482 43C57.9482 32.5066 49.4417 24 38.9482 24C28.4548 24 19.9482 32.5066 19.9482 43C19.9482 53.4934 28.4548 62 38.9482 62Z" fill="#F5F8FA"/>
<path d="M38.9478 35.6111C38.6678 35.6111 38.3993 35.4999 38.2014 35.3019C38.0034 35.104 37.8922 34.8355 37.8922 34.5556V27.1667C37.8922 26.8867 38.0034 26.6182 38.2014 26.4203C38.3993 26.2223 38.6678 26.1111 38.9478 26.1111C39.2277 26.1111 39.4962 26.2223 39.6942 26.4203C39.8921 26.6182 40.0033 26.8867 40.0033 27.1667V34.5556C40.0033 34.8355 39.8921 35.104 39.6942 35.3019C39.4962 35.4999 39.2277 35.6111 38.9478 35.6111ZM31.9991 40.3611C31.8909 40.361 31.7834 40.3443 31.6803 40.3115L23.1926 37.6283C22.9256 37.5439 22.7032 37.3569 22.5741 37.1085C22.445 36.86 22.4199 36.5705 22.5043 36.3036C22.5887 36.0366 22.7757 35.8142 23.0242 35.6851C23.2726 35.556 23.5621 35.5309 23.8291 35.6153L32.3178 38.2986C32.5586 38.3742 32.7643 38.5337 32.8977 38.748C33.031 38.9623 33.0831 39.2173 33.0446 39.4668C33.006 39.7162 32.8793 39.9436 32.6875 40.1077C32.4957 40.2718 32.2515 40.3617 31.9991 40.3611ZM46.381 40.0539C46.1275 40.0526 45.8829 39.96 45.6919 39.7933C45.5009 39.6265 45.3762 39.3967 45.3407 39.1457C45.3051 38.8946 45.3609 38.6392 45.4981 38.4259C45.6352 38.2127 45.8444 38.0558 46.0876 37.984L53.2126 35.9172C53.4802 35.8434 53.7662 35.8779 54.0086 36.0135C54.2509 36.149 54.4301 36.3746 54.5073 36.6413C54.5845 36.908 54.5535 37.1944 54.421 37.4384C54.2885 37.6824 54.0652 37.8644 53.7994 37.9449L46.6744 40.0117C46.5791 40.0395 46.4803 40.0537 46.381 40.0539ZM48.4932 55.8429C48.3285 55.8431 48.1661 55.8047 48.0189 55.7308C47.8717 55.6569 47.7439 55.5497 47.6456 55.4176L41.8833 47.6772C41.7973 47.5662 41.7342 47.4393 41.6979 47.3037C41.6615 47.1681 41.6526 47.0267 41.6716 46.8876C41.6906 46.7485 41.7371 46.6146 41.8085 46.4937C41.8798 46.3729 41.9746 46.2674 42.0872 46.1836C42.1997 46.0998 42.3279 46.0393 42.4642 46.0056C42.6005 45.9719 42.7421 45.9658 42.8807 45.9875C43.0194 46.0092 43.1524 46.0584 43.2718 46.1321C43.3913 46.2058 43.4948 46.3026 43.5764 46.4168L49.3387 54.1572C49.4554 54.3141 49.5263 54.5004 49.5434 54.6952C49.5605 54.8901 49.5231 55.0858 49.4354 55.2606C49.3477 55.4355 49.2132 55.5825 49.0468 55.6853C48.8804 55.7881 48.6888 55.8427 48.4932 55.8429ZM29.1828 55.7553C28.9901 55.7551 28.8011 55.7022 28.6363 55.6022C28.4715 55.5022 28.3373 55.3591 28.2481 55.1882C28.1589 55.0173 28.1182 54.8253 28.1304 54.633C28.1426 54.4406 28.2072 54.2553 28.3173 54.0971L33.727 46.3123C33.8047 46.1951 33.9049 46.0946 34.0219 46.0167C34.139 45.9388 34.2704 45.8851 34.4084 45.8586C34.5465 45.8322 34.6885 45.8336 34.826 45.8628C34.9635 45.892 35.0938 45.9483 35.2093 46.0285C35.3247 46.1088 35.423 46.2112 35.4983 46.3299C35.5736 46.4487 35.6244 46.5812 35.6478 46.7198C35.6712 46.8585 35.6666 47.0004 35.6344 47.1372C35.6022 47.274 35.543 47.4031 35.4602 47.5167L30.0505 55.3014C29.9533 55.4416 29.8236 55.556 29.6725 55.6351C29.5214 55.7141 29.3534 55.7554 29.1828 55.7553ZM23.6422 52.5654C23.1778 52.5654 22.7513 52.2562 22.6236 51.7864L20.3141 43.2766C20.2778 43.1427 20.2683 43.0031 20.286 42.8655C20.3037 42.728 20.3484 42.5953 20.4174 42.4751C20.4864 42.3548 20.5784 42.2493 20.6882 42.1646C20.798 42.0799 20.9233 42.0176 21.0572 41.9814C21.191 41.9451 21.3307 41.9356 21.4682 41.9533C21.6057 41.9711 21.7384 42.0157 21.8587 42.0847C21.9789 42.1537 22.0844 42.2457 22.1691 42.3555C22.2538 42.4653 22.3161 42.5907 22.3523 42.7245L24.6619 51.2344C24.7047 51.391 24.7107 51.5553 24.6795 51.7146C24.6483 51.8739 24.5807 52.0238 24.482 52.1526C24.3832 52.2815 24.2561 52.3858 24.1104 52.4574C23.9648 52.529 23.8045 52.566 23.6422 52.5654ZM43.17 59.8889H33.67C33.3901 59.8889 33.1216 59.7777 32.9236 59.5797C32.7257 59.3818 32.6145 59.1133 32.6145 58.8333C32.6145 58.5534 32.7257 58.2849 32.9236 58.0869C33.1216 57.889 33.3901 57.7778 33.67 57.7778H43.17C43.45 57.7778 43.7184 57.889 43.9164 58.0869C44.1144 58.2849 44.2256 58.5534 44.2256 58.8333C44.2256 59.1133 44.1144 59.3818 43.9164 59.5797C43.7184 59.7777 43.45 59.8889 43.17 59.8889ZM53.8586 52.6319C53.6985 52.6319 53.5405 52.5955 53.3966 52.5255C53.2526 52.4554 53.1265 52.3535 53.0278 52.2275C52.929 52.1015 52.8602 51.9547 52.8266 51.7982C52.7929 51.6417 52.7954 51.4796 52.8336 51.3241L55.0767 42.2199C55.1067 42.0821 55.164 41.9516 55.2452 41.8363C55.3265 41.721 55.4301 41.6231 55.5498 41.5485C55.6695 41.4739 55.803 41.424 55.9423 41.4019C56.0817 41.3797 56.224 41.3857 56.361 41.4195C56.498 41.4533 56.6268 41.5142 56.7398 41.5987C56.8528 41.6831 56.9478 41.7893 57.0191 41.9111C57.0903 42.0328 57.1365 42.1677 57.1548 42.3075C57.173 42.4474 57.1631 42.5896 57.1255 42.7256L54.8825 51.8297C54.7632 52.31 54.3325 52.6319 53.8586 52.6319ZM51.9438 32.1151C51.7585 32.1151 51.5765 32.0663 51.416 31.9737L43.4339 27.3556C43.3139 27.2861 43.2088 27.1937 43.1245 27.0835C43.0402 26.9734 42.9785 26.8477 42.9428 26.7137C42.9071 26.5797 42.8982 26.44 42.9165 26.3026C42.9349 26.1651 42.9801 26.0326 43.0497 25.9127C43.1898 25.6704 43.4205 25.4937 43.6908 25.4215C43.9612 25.3492 44.2493 25.3873 44.4916 25.5274L52.4737 30.1454C52.675 30.2617 52.8324 30.4412 52.9213 30.6561C53.0101 30.871 53.0256 31.1092 52.9652 31.3338C52.9048 31.5583 52.7719 31.7567 52.5872 31.8979C52.4025 32.0392 52.1763 32.1156 51.9438 32.1151ZM25.7544 32.1151C25.5307 32.1155 25.3127 32.0448 25.1318 31.9133C24.9509 31.7817 24.8164 31.5961 24.7478 31.3832C24.6793 31.1703 24.6801 30.9411 24.7502 30.7287C24.8203 30.5163 24.9561 30.3316 25.138 30.2014L31.6697 25.5168C31.8976 25.3656 32.1752 25.3087 32.4442 25.358C32.7132 25.4072 32.9526 25.5588 33.1121 25.7809C33.2716 26.0031 33.3388 26.2784 33.2995 26.549C33.2603 26.8196 33.1176 27.0645 32.9016 27.2321L26.3687 31.9167C26.1897 32.0454 25.9749 32.1147 25.7544 32.1151Z" fill="#CCD6DD"/>
<path d="M46.8575 38.2669L39.2491 32.9015C39.0695 32.7749 38.855 32.7075 38.6353 32.7086C38.4156 32.7097 38.2018 32.7794 38.0236 32.9078L30.4584 38.3619C30.2816 38.4895 30.1486 38.6687 30.0777 38.8749C30.0068 39.0811 30.0015 39.3042 30.0626 39.5135L32.7015 48.5733C32.7654 48.7926 32.8988 48.9852 33.0815 49.1222C33.2642 49.2593 33.4864 49.3333 33.7148 49.3333H43.1705C43.3915 49.3334 43.607 49.264 43.7866 49.1351C43.9661 49.0061 44.1006 48.824 44.1711 48.6145L47.2502 39.466C47.3226 39.2505 47.3235 39.0174 47.2527 38.8013C47.182 38.5853 47.0434 38.3978 46.8575 38.2669ZM21.312 44.6277C21.4994 44.6277 21.6835 44.5779 21.8452 44.4833C22.007 44.3887 22.1406 44.2527 22.2325 44.0893L25.795 37.756C25.8487 37.6602 25.8872 37.5565 25.909 37.4488L27.316 30.5444C27.3473 30.3911 27.3441 30.2326 27.3067 30.0807C27.2692 29.9287 27.1984 29.7869 27.0994 29.6657C27.0003 29.5444 26.8756 29.4467 26.7341 29.3796C26.5927 29.3125 26.4381 29.2777 26.2816 29.2778H25.8298C22.2124 32.7368 19.9482 37.5998 19.9482 43C19.9482 43.2808 19.9778 43.5542 19.9905 43.8318L20.6259 44.3743C20.818 44.539 21.0619 44.6277 21.312 44.6277ZM31.1551 27.1614C31.2105 27.2753 31.2924 27.3742 31.394 27.4499C31.4956 27.5256 31.6138 27.5758 31.7388 27.5963L38.468 28.6962C38.553 28.7092 38.6395 28.7092 38.7245 28.6962L45.1465 27.6406C45.2514 27.6233 45.3519 27.585 45.4417 27.528C45.5315 27.471 45.609 27.3965 45.6694 27.3089C45.7298 27.2213 45.7719 27.1224 45.7932 27.0182C45.8146 26.914 45.8147 26.8065 45.7935 26.7022L45.4853 25.1791C43.393 24.4031 41.1798 24.0039 38.9482 24C36.3885 24 33.9512 24.513 31.723 25.4313L31.173 26.4341C31.1121 26.5451 31.0787 26.669 31.0756 26.7956C31.0724 26.9221 31.0997 27.0476 31.1551 27.1614ZM52.8119 30.0367L51.2244 29.9364C51.1044 29.9293 50.9843 29.9492 50.873 29.9947C50.7618 30.0402 50.6621 30.1101 50.5815 30.1993C50.5018 30.2886 50.4438 30.395 50.4117 30.5103C50.3797 30.6256 50.3746 30.7467 50.3968 30.8643L51.6286 37.4066C51.6473 37.4905 51.6806 37.5706 51.7268 37.6431C53.3017 40.2862 55.0539 43.2386 55.2956 43.7463C55.321 43.8349 55.3611 43.8297 55.416 43.9057C55.5637 44.1115 55.8086 44.0556 56.062 44.0556H56.0694C56.2784 44.0556 56.4103 44.1548 57.9356 43.2607C57.9366 43.1731 57.9482 43.0876 57.9482 43C57.9482 37.9829 55.9891 33.4324 52.8119 30.0367ZM35.2971 59.2302C35.3079 59.0198 35.2355 58.8135 35.0955 58.656L30.3455 53.3782C30.2814 53.3088 30.2061 53.2507 30.1227 53.2062C23.9108 49.9667 23.7957 49.9287 23.7197 49.9023C23.6372 49.8755 23.5511 49.8616 23.4643 49.8611C22.8975 49.8611 22.7307 49.9297 22.2135 51.9976C24.5991 56.4228 28.6379 59.7251 33.4488 61.1841L35.0321 59.777C35.1101 59.7078 35.1737 59.6239 35.2191 59.53C35.2646 59.4362 35.2911 59.3343 35.2971 59.2302ZM54.1208 50.1873C54.0217 50.1457 53.9152 50.1247 53.8078 50.1257C53.7004 50.1266 53.5943 50.1493 53.4959 50.1926L47.075 53.0077C46.963 53.0563 46.8639 53.1304 46.7857 53.2241L42.2996 58.5895C42.2324 58.6698 42.1817 58.7626 42.1506 58.8626C42.1195 58.9626 42.1085 59.0678 42.1184 59.172C42.1282 59.2763 42.1586 59.3776 42.2078 59.47C42.2571 59.5624 42.3241 59.6442 42.4052 59.7105C43.1261 60.3006 43.7362 60.7977 44.2704 61.2305C48.9073 59.8701 52.8527 56.7958 55.3051 52.6319L54.5536 50.638C54.5158 50.5374 54.4579 50.4456 54.3835 50.3681C54.3091 50.2906 54.2197 50.2291 54.1208 50.1873Z" fill="#31373D"/>
</g>
<g filter="url(#filter0_d_11_50110)">
<path d="M6.89759 67.5455H10.7669L13.8607 80.1932H14.0652L21.3351 67.5455H25.2044L22.3067 85H19.2726L21.2669 73.0085H21.1135L14.2953 84.9489H12.0368L9.20725 72.983H9.04532L7.03395 85H3.99986L6.89759 67.5455ZM28.8665 85.2642C28.0369 85.2642 27.3153 85.1165 26.7017 84.821C26.088 84.5199 25.6363 84.0767 25.3466 83.4915C25.0625 82.9062 24.9915 82.1847 25.1335 81.3267C25.2585 80.5881 25.4971 79.9773 25.8494 79.4943C26.2074 79.0114 26.6449 78.625 27.1619 78.3352C27.6846 78.0398 28.2528 77.8182 28.8665 77.6705C29.4858 77.5227 30.1165 77.4148 30.7585 77.3466C31.5426 77.267 32.1761 77.1932 32.6591 77.125C33.1477 77.0568 33.5142 76.9545 33.7585 76.8182C34.0028 76.6761 34.1505 76.4602 34.2017 76.1705V76.1193C34.304 75.4773 34.2017 74.9801 33.8949 74.6278C33.588 74.2756 33.0767 74.0994 32.3608 74.0994C31.6108 74.0994 30.9801 74.2642 30.4687 74.5938C29.9574 74.9233 29.5852 75.3125 29.3522 75.7614L26.5568 75.3523C26.9091 74.5568 27.392 73.892 28.0057 73.358C28.6193 72.8182 29.3267 72.4148 30.1278 72.1477C30.9346 71.875 31.7954 71.7386 32.7102 71.7386C33.3352 71.7386 33.946 71.8125 34.5426 71.9602C35.1449 72.108 35.6761 72.3523 36.1363 72.6932C36.6022 73.0284 36.9432 73.4858 37.1591 74.0653C37.3807 74.6449 37.4176 75.3693 37.2699 76.2386L35.8125 85H32.8466L33.1534 83.2017H33.0511C32.8068 83.5653 32.4886 83.9062 32.0966 84.2244C31.7045 84.5369 31.2386 84.7898 30.6988 84.983C30.1591 85.1705 29.5483 85.2642 28.8665 85.2642ZM30.0341 82.9972C30.6534 82.9972 31.2102 82.875 31.7045 82.6307C32.1988 82.3807 32.6051 82.0511 32.9233 81.642C33.2415 81.233 33.4403 80.7869 33.5199 80.304L33.7755 78.7614C33.6619 78.8409 33.4858 78.9148 33.2471 78.983C33.0085 79.0511 32.7415 79.1108 32.446 79.1619C32.1562 79.2131 31.8693 79.2585 31.5852 79.2983C31.3011 79.3381 31.0568 79.3722 30.8522 79.4006C30.3807 79.4631 29.9488 79.5653 29.5568 79.7074C29.1704 79.8494 28.8494 80.0483 28.5937 80.304C28.3437 80.554 28.1875 80.8778 28.125 81.2756C28.0341 81.8381 28.1676 82.267 28.5255 82.5625C28.8835 82.8523 29.3863 82.9972 30.0341 82.9972ZM47.1535 71.9091L46.7529 74.2955H39.2359L39.6279 71.9091H47.1535ZM41.9972 68.7727H45.0825L43.037 81.0625C42.9745 81.4773 42.9859 81.7955 43.0711 82.017C43.162 82.233 43.3069 82.3807 43.5058 82.4602C43.7103 82.5398 43.9404 82.5795 44.1961 82.5795C44.3836 82.5795 44.5597 82.5653 44.7245 82.5369C44.8893 82.5028 45.02 82.4773 45.1166 82.4602L45.2529 84.8722C45.0654 84.929 44.8126 84.9915 44.4944 85.0597C44.1819 85.1278 43.8069 85.1676 43.3694 85.179C42.5853 85.196 41.9035 85.0767 41.324 84.821C40.7501 84.5597 40.3296 84.1591 40.0626 83.6193C39.8012 83.0739 39.7416 82.392 39.8836 81.5739L41.9972 68.7727ZM52.6074 85.2557C51.3006 85.2557 50.2268 84.9688 49.3859 84.3949C48.5449 83.821 47.9569 83.0284 47.6217 82.017C47.2921 81 47.2381 79.8295 47.4597 78.5057C47.6756 77.1761 48.1217 76.0028 48.7978 74.9858C49.4796 73.9631 50.3376 73.1676 51.3717 72.5994C52.4057 72.0256 53.562 71.7386 54.8404 71.7386C55.9029 71.7386 56.8092 71.9347 57.5592 72.3267C58.3148 72.7131 58.8773 73.2614 59.2467 73.9716C59.6217 74.6761 59.7665 75.5 59.6813 76.4432H56.7239C56.7126 75.8125 56.5165 75.2869 56.1359 74.8665C55.7552 74.4403 55.1984 74.2273 54.4654 74.2273C53.829 74.2273 53.2438 74.3977 52.7097 74.7386C52.1756 75.0739 51.7239 75.5568 51.3546 76.1875C50.9853 76.8182 50.7296 77.5739 50.5876 78.4545C50.4398 79.3466 50.4427 80.1136 50.5961 80.7557C50.7552 81.392 51.0421 81.8835 51.4569 82.2301C51.8773 82.571 52.4086 82.7415 53.0506 82.7415C53.5052 82.7415 53.9285 82.6562 54.3205 82.4858C54.7126 82.3097 55.0563 82.0568 55.3518 81.7273C55.6529 81.3977 55.8887 80.9972 56.0592 80.5256H59.008C58.7751 81.4517 58.3603 82.2727 57.7637 82.9886C57.1728 83.6989 56.4398 84.2557 55.5648 84.6591C54.6898 85.0568 53.704 85.2557 52.6074 85.2557ZM64.6665 77.3295L63.4051 85H60.3114L63.2091 67.5455H66.2347L65.1438 74.1335H65.3057C65.7205 73.3892 66.2858 72.804 67.0017 72.3778C67.7233 71.9517 68.5898 71.7386 69.6012 71.7386C70.4989 71.7386 71.2546 71.929 71.8682 72.3097C72.4819 72.6903 72.9137 73.2472 73.1637 73.9801C73.4194 74.7131 73.462 75.608 73.2915 76.6648L71.8938 85H68.8L70.1125 77.142C70.2546 76.2614 70.1381 75.5767 69.7631 75.0881C69.3938 74.5937 68.8086 74.3466 68.0074 74.3466C67.4563 74.3466 66.9478 74.4659 66.4819 74.7045C66.0159 74.9375 65.6239 75.2756 65.3057 75.7188C64.9932 76.1619 64.7801 76.6989 64.6665 77.3295Z" fill="#F3F3F3"/>
<path d="M23.7933 114H17.7933L20.691 96.5455H26.6399C28.3728 96.5455 29.8103 96.9034 30.9524 97.6193C32.0944 98.3352 32.8956 99.358 33.3558 100.688C33.8217 102.011 33.9013 103.591 33.5944 105.426C33.299 107.222 32.7166 108.759 31.8473 110.037C30.978 111.315 29.8615 112.295 28.4978 112.977C27.1342 113.659 25.566 114 23.7933 114ZM21.4069 111.264H23.9552C25.1655 111.264 26.2194 111.034 27.1172 110.574C28.0206 110.108 28.7564 109.418 29.3245 108.503C29.8984 107.582 30.2961 106.44 30.5177 105.077C30.7393 103.77 30.7251 102.69 30.4751 101.838C30.2251 100.98 29.7393 100.341 29.0177 99.9205C28.3018 99.4943 27.353 99.2812 26.1711 99.2812H23.3927L21.4069 111.264ZM38.3005 114.264C37.471 114.264 36.7494 114.116 36.1357 113.821C35.5221 113.52 35.0704 113.077 34.7806 112.491C34.4965 111.906 34.4255 111.185 34.5676 110.327C34.6926 109.588 34.9312 108.977 35.2835 108.494C35.6414 108.011 36.0789 107.625 36.596 107.335C37.1187 107.04 37.6869 106.818 38.3005 106.67C38.9198 106.523 39.5505 106.415 40.1926 106.347C40.9767 106.267 41.6102 106.193 42.0931 106.125C42.5818 106.057 42.9482 105.955 43.1926 105.818C43.4369 105.676 43.5846 105.46 43.6357 105.17V105.119C43.738 104.477 43.6357 103.98 43.3289 103.628C43.0221 103.276 42.5107 103.099 41.7948 103.099C41.0448 103.099 40.4142 103.264 39.9028 103.594C39.3914 103.923 39.0193 104.312 38.7863 104.761L35.9909 104.352C36.3431 103.557 36.8261 102.892 37.4397 102.358C38.0534 101.818 38.7607 101.415 39.5619 101.148C40.3687 100.875 41.2295 100.739 42.1443 100.739C42.7693 100.739 43.3801 100.812 43.9767 100.96C44.5789 101.108 45.1102 101.352 45.5704 101.693C46.0363 102.028 46.3772 102.486 46.5931 103.065C46.8147 103.645 46.8517 104.369 46.7039 105.239L45.2465 114H42.2806L42.5874 112.202H42.4852C42.2409 112.565 41.9227 112.906 41.5306 113.224C41.1386 113.537 40.6727 113.79 40.1329 113.983C39.5931 114.17 38.9823 114.264 38.3005 114.264ZM39.4681 111.997C40.0874 111.997 40.6443 111.875 41.1386 111.631C41.6329 111.381 42.0392 111.051 42.3573 110.642C42.6755 110.233 42.8744 109.787 42.9539 109.304L43.2096 107.761C43.096 107.841 42.9198 107.915 42.6812 107.983C42.4426 108.051 42.1755 108.111 41.8801 108.162C41.5903 108.213 41.3034 108.259 41.0193 108.298C40.7352 108.338 40.4909 108.372 40.2863 108.401C39.8147 108.463 39.3829 108.565 38.9909 108.707C38.6045 108.849 38.2835 109.048 38.0278 109.304C37.7778 109.554 37.6215 109.878 37.559 110.276C37.4681 110.838 37.6017 111.267 37.9596 111.562C38.3176 111.852 38.8204 111.997 39.4681 111.997ZM48.5165 118.909C48.0961 118.909 47.7126 118.875 47.366 118.807C47.0251 118.744 46.7552 118.67 46.5563 118.585L47.6813 116.182C48.1074 116.313 48.491 116.369 48.8319 116.352C49.1785 116.341 49.4967 116.224 49.7864 116.003C50.0819 115.787 50.3717 115.432 50.6557 114.938L51.0478 114.23L48.5421 100.909H51.6955L53.0592 110.812H53.1955L57.8745 100.909H61.2751L53.6131 115.568C53.2438 116.278 52.8148 116.881 52.3262 117.375C51.8376 117.875 51.2779 118.256 50.6472 118.517C50.0222 118.778 49.312 118.909 48.5165 118.909Z" fill="#5CEA34"/>
</g>
<defs>
<filter id="filter0_d_11_50110" x="0" y="67.5455" width="77.5469" height="59.3636" filterUnits="userSpaceOnUse" color-interpolation-filters="sRGB">
<feFlood flood-opacity="0" result="BackgroundImageFix"/>
<feColorMatrix in="SourceAlpha" type="matrix" values="0 0 0 0 0 0 0 0 0 0 0 0 0 0 0 0 0 0 127 0" result="hardAlpha"/>
<feOffset dy="4"/>
<feGaussianBlur stdDeviation="2"/>
<feComposite in2="hardAlpha" operator="out"/>
<feColorMatrix type="matrix" values="0 0 0 0 0 0 0 0 0 0 0 0 0 0 0 0 0 0 0.25 0"/>
<feBlend mode="normal" in2="BackgroundImageFix" result="effect1_dropShadow_11_50110"/>
<feBlend mode="normal" in="SourceGraphic" in2="effect1_dropShadow_11_50110" result="shape"/>
</filter>
<clipPath id="clip0_11_50110">
<rect width="38" height="38" fill="white" transform="translate(19.9482 24)"/>
</clipPath>
</defs>
</svg>
