<svg width="24" height="24" viewBox="0 0 24 24" fill="none" xmlns="http://www.w3.org/2000/svg">
<path d="M12 2C6.49 2 2 6.49 2 12C2 17.51 6.49 22 12 22C17.51 22 22 17.51 22 12C22 6.49 17.51 2 12 2ZM8.5 9C9.33 9 10 9.67 10 10.5C10 11.33 9.33 12 8.5 12C7.67 12 7 11.33 7 10.5C7 9.67 7.67 9 8.5 9ZM16.24 16.24C15.97 16.51 15.67 16.76 15.36 16.97C15.04 17.19 14.7 17.37 14.34 17.52C13.97 17.68 13.59 17.79 13.21 17.87C12.4114 18.0316 11.5886 18.0316 10.79 17.87C10.41 17.79 10.03 17.67 9.66 17.52C9.3 17.37 8.96 17.18 8.64 16.97C8.32168 16.7543 8.02377 16.51 7.75 16.24C7.47921 15.9706 7.23477 15.6759 7.02 15.36L8.68 14.24C8.82 14.45 8.99 14.65 9.17 14.83C9.72023 15.3858 10.4234 15.7652 11.19 15.92C11.9852 16.0825 12.8109 16.0024 13.56 15.69C13.8 15.59 14.03 15.47 14.24 15.32C14.45 15.18 14.65 15.01 14.83 14.83C15.01 14.65 15.18 14.45 15.32 14.24L16.98 15.36C16.77 15.68 16.52 15.98 16.25 16.25L16.24 16.24ZM15.5 12C14.67 12 14 11.33 14 10.5C14 9.67 14.67 9 15.5 9C16.33 9 17 9.67 17 10.5C17 11.33 16.33 12 15.5 12Z" fill="#FAFAFA"/>
</svg>
