<svg width="24" height="24" viewBox="0 0 24 24" fill="none" xmlns="http://www.w3.org/2000/svg">
<path d="M8.5 9C8.10218 9 7.72064 9.15804 7.43934 9.43934C7.15804 9.72064 7 10.1022 7 10.5C7 10.8978 7.15804 11.2794 7.43934 11.5607C7.72064 11.842 8.10218 12 8.5 12C8.89782 12 9.27936 11.842 9.56066 11.5607C9.84196 11.2794 10 10.8978 10 10.5C10 10.1022 9.84196 9.72064 9.56066 9.43934C9.27936 9.15804 8.89782 9 8.5 9ZM15.5 9C14.67 9 14 9.67 14 10.5C14 11.33 14.67 12 15.5 12C16.33 12 17 11.33 17 10.5C17 9.67 16.33 9 15.5 9Z" fill="#FAFAFA"/>
<path d="M12 2C6.49 2 2 6.49 2 12C2 17.51 6.49 22 12 22C17.51 22 22 17.51 22 12C22 6.49 17.51 2 12 2ZM12 20C7.59 20 4 16.41 4 12C4 7.59 7.59 4 12 4C16.41 4 20 7.59 20 12C20 16.41 16.41 20 12 20Z" fill="#FAFAFA"/>
<path d="M14.8295 14.83C14.2793 15.3857 13.5761 15.7652 12.8095 15.92C12.0143 16.0825 11.1886 16.0024 10.4395 15.69C9.96345 15.4902 9.53177 15.1979 9.16953 14.83C8.98953 14.65 8.82953 14.45 8.67953 14.24L7.01953 15.36C7.23953 15.68 7.47953 15.98 7.74953 16.24C8.01953 16.51 8.31953 16.76 8.63953 16.97C8.95953 17.18 9.29953 17.37 9.65953 17.52C10.0195 17.67 10.3995 17.79 10.7895 17.87C11.5881 18.0316 12.411 18.0316 13.2095 17.87C13.5895 17.79 13.9695 17.67 14.3395 17.52C14.6995 17.37 15.0395 17.18 15.3595 16.97C15.6795 16.76 15.9795 16.51 16.2495 16.24C16.5195 15.97 16.7695 15.67 16.9795 15.35L15.3195 14.23C15.1795 14.44 15.0095 14.64 14.8295 14.82V14.83Z" fill="#FAFAFA"/>
</svg>
